<svg preserveAspectRatio="none" width="100%" height="100%" overflow="visible" style="display: block;" viewBox="0 0 48 48" fill="none" xmlns="http://www.w3.org/2000/svg">
<g id="&#232;&#191;&#148;&#229;&#155;&#158;">
<g id="Vector (Stroke)" filter="url(#filter0_d_0_73)">
<path d="M33.687 41.6909L33.7401 41.7469C34.2713 42.3365 34.2523 43.2453 33.6841 43.812C33.1158 44.3787 32.2067 44.3954 31.6187 43.8625L31.563 43.8091L17.3785 29.5851L19.5029 27.4666L33.687 41.6909ZM17.3815 27.4636C17.9681 26.8787 18.918 26.88 19.5029 27.4666L17.3785 29.5851C16.7936 28.9985 16.7949 28.0486 17.3815 27.4636ZM31.563 4.19092C32.148 3.60433 33.0975 3.60303 33.6841 4.18799C34.2707 4.77295 34.272 5.72248 33.687 6.30908L15.312 24.7357C14.7271 25.3223 13.7775 25.3239 13.1909 24.739C12.6043 24.1541 12.603 23.2042 13.188 22.6176L31.563 4.19092Z" fill="var(--fill-0, white)"/>
</g>
<g id="Rectangle 19" filter="url(#filter1_d_0_73)">
<rect x="21.6582" y="24" width="8.01989" height="8.01989" rx="1.125" transform="rotate(-45 21.6582 24)" fill="var(--fill-0, white)"/>
</g>
</g>
<defs>
<filter id="filter0_d_0_73" x="12.7501" y="3.75013" width="21.3748" height="43.4999" filterUnits="userSpaceOnUse" color-interpolation-filters="sRGB">
<feFlood flood-opacity="0" result="BackgroundImageFix"/>
<feColorMatrix in="SourceAlpha" type="matrix" values="0 0 0 0 0 0 0 0 0 0 0 0 0 0 0 0 0 0 127 0" result="hardAlpha"/>
<feOffset dy="3"/>
<feComposite in2="hardAlpha" operator="out"/>
<feColorMatrix type="matrix" values="0 0 0 0 0 0 0 0 0 0 0 0 0 0 0 0 0 0 0.25 0"/>
<feBlend mode="normal" in2="BackgroundImageFix" result="effect1_dropShadow_0_73"/>
<feBlend mode="normal" in="SourceGraphic" in2="effect1_dropShadow_0_73" result="shape"/>
</filter>
<filter id="filter1_d_0_73" x="22.1241" y="18.7951" width="10.4099" height="13.4099" filterUnits="userSpaceOnUse" color-interpolation-filters="sRGB">
<feFlood flood-opacity="0" result="BackgroundImageFix"/>
<feColorMatrix in="SourceAlpha" type="matrix" values="0 0 0 0 0 0 0 0 0 0 0 0 0 0 0 0 0 0 127 0" result="hardAlpha"/>
<feOffset dy="3"/>
<feComposite in2="hardAlpha" operator="out"/>
<feColorMatrix type="matrix" values="0 0 0 0 0 0 0 0 0 0 0 0 0 0 0 0 0 0 0.25 0"/>
<feBlend mode="normal" in2="BackgroundImageFix" result="effect1_dropShadow_0_73"/>
<feBlend mode="normal" in="SourceGraphic" in2="effect1_dropShadow_0_73" result="shape"/>
</filter>
</defs>
</svg>
